<svg xmlns:dc="http://purl.org/dc/elements/1.1/" xmlns:cc="http://creativecommons.org/ns#" xmlns:rdf="http://www.w3.org/1999/02/22-rdf-syntax-ns#" xmlns:svg="http://www.w3.org/2000/svg" xmlns="http://www.w3.org/2000/svg" xmlns:sodipodi="http://sodipodi.sourceforge.net/DTD/sodipodi-0.dtd" xmlns:inkscape="http://www.inkscape.org/namespaces/inkscape" version="1.1" x="0px" y="0px" viewBox="0 0 100 125"><g transform="translate(0,-952.36218)"><path style="text-indent:0;text-transform:none;direction:ltr;block-progression:tb;baseline-shift:baseline;color:#000000;enable-background:accumulate;" d="m 42.999792,958.36217 c -9.91744,0 -18,8.08256 -18,18 0,3.90626 1.15976,8.0726 3.375,11.15625 a 2.003476,2.003476 0 1 0 3.25,-2.34375 c -1.55688,-2.16721 -2.625,-5.75998 -2.625,-8.8125 0,-7.75568 6.24432,-14 14,-14 7.75568,0 14,6.24432 14,14 0,3.05252 -1.06812,6.64529 -2.625,8.8125 a 2.003476,2.003476 0 1 0 3.25,2.34375 c 2.21524,-3.08365 3.375,-7.24999 3.375,-11.15625 0,-9.91744 -8.08256,-18 -18,-18 z m 0,12 c -4.39734,0 -8,3.60259 -8,8 l 0,27.53123 c -1.23859,-2.6772 -3.46132,-5.571 -6.25,-6.2812 -3.79413,-1.0301 -8.44165,2.0051 -9.5,5.5312 -0.53956,1.9654 -0.18781,4.2021 0.875,6.9375 5.19539,12.4929 11.59226,24.487 19.375,33.5938 0.37207,0.4278 0.93307,0.6849 1.5,0.6875 l 27,0 c 0.42551,0 0.84842,-0.1492 1.1875,-0.4063 2.87871,-2.1325 5.19891,-5.7652 7.125,-10.0937 1.92608,-4.3285 3.40038,-9.3497 4.15625,-14.25 0.75587,-4.9003 0.75291,-9.489 -0.3125,-13.5625 -1.02827,-3.9316 -3.80193,-7.2034 -7.9375,-7.6875 -0.97483,0 -2.0042,0.081 -2.875,0.2812 -0.51296,-1.2265 -1.23202,-2.2725 -2.125,-2.9062 -1.49536,-1.0612 -3.01736,-1.3954 -4.25,-1.375 -1.18341,0.02 -2.26252,0.4507 -3.21875,1.125 -0.43029,-0.6567 -0.87279,-1.3399 -1.4375,-1.75 -1.48261,-1.0767 -3.05996,-1.375 -4.3125,-1.375 -1.03617,0 -2.03889,0.2873 -3,0.6875 l 0,-16.68753 c -0.0854,-5.35282 -4.30655,-8.0103 -8,-8 z m 0,4 c 2.25057,0 4,1.74941 4,4 l 0,21.00003 c -0.0132,0.9065 0.67891,1.7659 1.5625,1.9687 0.88359,0.2028 1.86659,-0.2722 2.25,-1.0937 0.44181,-0.9185 2.10612,-1.875 3.1875,-1.875 0.48534,0 1.38587,0.2017 1.96875,0.625 0.58289,0.4233 1.03125,0.9187 1.03125,2.375 0.002,0.8891 0.66663,1.7303 1.53125,1.9375 0.86462,0.2072 1.84536,-0.2396 2.25,-1.0313 0.81307,-1.6265 1.24883,-1.8895 2.25,-1.9062 0.27701,0 1.24781,0.1799 1.875,0.625 0.6272,0.445 1.09375,0.9567 1.09375,2.375 -0.006,0.7789 0.47326,1.5329 1.1875,1.8437 0.71425,0.3109 1.62174,0.1605 2.1875,-0.375 0.75837,-0.3738 1.50215,-0.4872 2.46875,-0.4687 2.38448,0.3033 3.62227,1.7976 4.46875,4.7812 0.85426,3.0111 0.88608,7.315 0.1875,11.8438 -0.69857,4.5288 -2.07921,9.2845 -3.84375,13.25 -1.6549,3.7191 -3.68147,6.6235 -5.46875,8.125 l -25.21875,0 c -7.02017,-8.2816 -13.72401,-20.9984 -18.09375,-31.7188 -0.90971,-2.3414 -0.9917,-3.6859 -0.78125,-4.4375 0.74115,-1.9344 2.81501,-3.0265 4.59375,-2.75 2.1264,0.8009 2.6533,2.2198 3.5625,3.8438 l 3.96875,7.9687 c 0.40463,0.7917 1.38538,1.2385 2.25,1.0313 0.86461,-0.2072 1.52945,-1.0484 1.53125,-1.9375 l 0,-36.00003 c 0,-2.25059 1.74944,-4 4,-4 z" fill="#000000" fill-opacity="1" stroke="none" marker="none" visibility="visible" display="inline" overflow="visible"/></g><text x="0" y="115" fill="#000000" font-size="0px" font-weight="bold" font-family="'Helvetica Neue', Helvetica, Arial-Unicode, Arial, Sans-serif">Created by iconsphere</text><text x="0" y="120" fill="#FFFFFF" font-size="0px" font-weight="bold" font-family="'Helvetica Neue', Helvetica, Arial-Unicode, Arial, Sans-serif">from the Noun Project</text></svg>